<svg width="168" height="76" viewBox="0 0 168 76" fill="none" xmlns="http://www.w3.org/2000/svg">
<path d="M8.92786 51.0566C8.73586 51.1526 8.54386 51.1526 8.25586 51.1526C8.44786 51.1526 8.73586 51.1526 8.92786 51.0566Z" fill="#70F46D"/>
<path d="M11.4239 27.2483C11.3279 27.1523 11.3279 26.9603 11.2319 26.8643C11.3279 26.9603 11.4239 27.0563 11.4239 27.2483Z" fill="#70F46D"/>
<path d="M39.2639 51.1523H39.6479C39.5519 51.1523 39.4559 51.1523 39.2639 51.1523ZM11.2319 26.8643C11.3279 26.9603 11.3279 27.1523 11.4239 27.2483C11.4239 27.0563 11.3279 26.9603 11.2319 26.8643Z" fill="#70F46D"/>
<path d="M42.8159 26.4801C42.1439 25.4241 40.8959 24.8481 39.7439 24.8481C35.9999 20.3361 30.3359 17.4561 23.9999 17.4561C17.6639 17.4561 11.9999 20.3361 8.25592 24.8481C7.00792 24.8481 5.85592 25.4241 5.18392 26.4801C3.07192 29.9361 1.91992 33.9681 1.91992 38.0001C1.91992 42.0321 3.07192 46.0641 5.18392 49.5201C5.85592 50.5761 7.00792 51.1521 8.06392 51.1521H8.15992C10.9439 54.4161 14.5919 56.8161 18.9119 57.8721C20.5439 58.2561 22.1759 58.4481 23.9039 58.4481C25.6319 58.4481 27.2639 58.2561 28.8959 57.8721C33.1199 56.8161 36.8639 54.4161 39.6479 51.1521H39.8399C40.9919 51.1521 42.1439 50.5761 42.7199 49.5201C44.9279 46.0641 45.9839 42.0321 45.9839 38.0001C46.0799 33.9681 44.9279 29.9361 42.8159 26.4801ZM11.0399 30.1281C11.6159 29.2641 11.7119 28.2081 11.4239 27.2481C11.4239 27.1521 11.3279 26.9601 11.2319 26.8641C11.3279 26.9601 11.3279 27.1521 11.4239 27.2481C14.4959 23.6961 19.0079 21.4881 23.9999 21.4881C29.0879 21.4881 33.5039 23.6961 36.5759 27.2481C36.2879 28.2081 36.3839 29.2641 36.9599 30.1281C37.9199 31.6641 38.5919 33.2961 38.8799 35.0241C34.3679 33.0081 29.2799 31.8561 23.9999 31.8561C18.7199 31.8561 13.6319 33.0081 9.11992 35.0241C9.50392 33.2961 10.0799 31.5681 11.0399 30.1281ZM21.0239 54.3201C16.9919 53.5521 14.1119 51.7281 11.4239 48.7521C11.7119 47.7921 11.6159 46.7361 11.0399 45.8721C9.98392 44.2401 9.31192 42.3201 9.02392 40.4961C9.11992 40.4961 9.31192 40.4001 9.40792 40.4001H9.50392C9.69592 40.4001 9.88792 40.3041 10.1759 40.3041H11.0399C16.8959 40.3041 21.6959 45.0081 21.6959 50.8641C21.5999 52.1121 21.4079 53.2641 21.0239 54.3201ZM23.9999 42.0321C22.1759 42.0321 20.7359 40.5921 20.7359 38.7681C20.7359 36.9441 22.1759 35.5041 23.9999 35.5041C25.8239 35.5041 27.2639 36.9441 27.2639 38.7681C27.2639 40.5921 25.8239 42.0321 23.9999 42.0321ZM36.9599 45.9681C36.3839 46.8321 36.2879 47.8881 36.5759 48.8481C34.1759 51.6321 30.7199 53.6481 26.8799 54.3201C26.4959 53.2641 26.3039 52.1121 26.3039 50.9601C26.3039 45.1041 31.0079 40.4001 36.8639 40.4001C37.5359 40.4001 38.2079 40.4961 38.8799 40.5921C38.6879 42.4161 37.9199 44.2401 36.9599 45.9681Z" fill="#70F46D"/>
<text x="60%" y="52%" dominant-baseline="middle" text-anchor="middle" font-size="20" fill="white" font-family="Arial" font-weight="bold">ADCoches</text>
</svg>
